<svg xmlns="http://www.w3.org/2000/svg" viewBox="0 0 45 45">
  <defs>
    <radialGradient id="wB_grad" cx="35%" cy="30%" r="70%">
      <stop offset="0%" stop-color="#ffffff"/>
      <stop offset="65%" stop-color="#f0ebe1"/>
      <stop offset="100%" stop-color="#d4cbba"/>
    </radialGradient>
    <filter id="shadow" x="-20%" y="-20%" width="140%" height="140%">
      <feDropShadow dx="1" dy="2" stdDeviation="1.2" flood-color="#000000" flood-opacity="0.35"/>
    </filter>
  </defs>
  <g filter="url(#shadow)" fill="url(#wB_grad)" stroke="#1a1a1a" stroke-width="1.3" stroke-linecap="round" stroke-linejoin="round">
    <!-- Top ball -->
    <circle cx="22.5" cy="8.5" r="2" />
    <!-- Bishop mitre head -->
    <path d="M 22.5 11.5 C 17.5 11.5 14.5 16 14.5 20.5 C 14.5 24 16.5 26.5 19 28 L 26 28 C 28.5 26.5 30.5 24 30.5 20.5 C 30.5 16 27.5 11.5 22.5 11.5 Z" />
    <!-- Diagonal cut slit -->
    <path d="M 20.5 15 L 26.5 19" stroke="#1a1a1a" stroke-width="1.5" />
    <!-- Neck ring -->
    <path d="M 18 28.5 Q 22.5 30.5 27 28.5 L 27 31 L 18 31 Z" />
    <!-- Shaft base -->
    <path d="M 18.5 31 C 17.5 33 16 34 14.5 35 L 30.5 35 C 29 34 27.5 33 26.5 31 Z" />
    <!-- Ring base -->
    <path d="M 13 35 L 32 35 L 32 37.5 L 13 37.5 Z" />
    <!-- Bottom base -->
    <path d="M 11 37.5 L 34 37.5 L 34 40.5 L 11 40.5 Z" />
  </g>
</svg>
